<?xml version="1.0" encoding="UTF-8"?>
<!DOCTYPE svg PUBLIC "-//W3C//DTD SVG 1.1//EN" "http://www.w3.org/Graphics/SVG/1.1/DTD/svg11.dtd">
<!-- Creator: CorelDRAW -->
<svg xmlns="http://www.w3.org/2000/svg" xml:space="preserve" width="520px" height="99px" version="1.1" style="shape-rendering:geometricPrecision; text-rendering:geometricPrecision; image-rendering:optimizeQuality; fill-rule:evenodd; clip-rule:evenodd"
viewBox="0 0 3.457 0.657"
 xmlns:xlink="http://www.w3.org/1999/xlink"
 xmlns:xodm="http://www.corel.com/coreldraw/odm/2003">
 <defs>
  <style type="text/css">
   <![CDATA[
    .fil2 {fill:black}
    .fil1 {fill:#FF6600}
    .fil0 {fill:white;fill-rule:nonzero}
   ]]>
  </style>
    <mask id="id0">
  <linearGradient id="id1" gradientUnits="userSpaceOnUse" x1="0.856" y1="0.154" x2="0.415" y2="0.213">
   <stop offset="0" style="stop-opacity:1; stop-color:white"/>
   <stop offset="1" style="stop-opacity:0; stop-color:white"/>
  </linearGradient>
     <rect style="fill:url(#id1)" x="0.247" y="0.142" width="0.485" height="0.169"/>
    </mask>
 </defs>
 <g id="Camada_x0020_1">
  <metadata id="CorelCorpID_0Corel-Layer"/>
  <g id="_2202395340352">
   <path class="fil0" d="M0.752 0.434l0 -0.227 0.029 0 0 0.062 -0.003 -0.011c0.006,-0.017 0.017,-0.03 0.032,-0.039 0.015,-0.009 0.033,-0.014 0.056,-0.014l0 0.03c-0.002,0 -0.003,0 -0.004,0 -0.001,-0.001 -0.002,-0.001 -0.003,-0.001 -0.024,0 -0.043,0.008 -0.056,0.022 -0.014,0.015 -0.021,0.035 -0.021,0.062l0 0.116 -0.03 0zm0.243 0.002c-0.024,0 -0.045,-0.005 -0.062,-0.015 -0.018,-0.01 -0.032,-0.024 -0.042,-0.041 -0.01,-0.017 -0.015,-0.037 -0.015,-0.06 0,-0.022 0.004,-0.042 0.014,-0.059 0.01,-0.018 0.023,-0.031 0.04,-0.041 0.017,-0.01 0.035,-0.015 0.056,-0.015 0.022,0 0.041,0.005 0.057,0.014 0.017,0.01 0.03,0.024 0.039,0.041 0.01,0.017 0.014,0.037 0.014,0.06 0,0.002 0,0.003 0,0.005 0,0.001 0,0.003 0,0.005l-0.197 0 0 -0.023 0.181 0 -0.012 0.009c0,-0.017 -0.004,-0.031 -0.011,-0.044 -0.007,-0.013 -0.017,-0.023 -0.029,-0.03 -0.012,-0.007 -0.026,-0.011 -0.042,-0.011 -0.015,0 -0.029,0.004 -0.041,0.011 -0.013,0.007 -0.022,0.017 -0.029,0.03 -0.007,0.013 -0.011,0.028 -0.011,0.045l0 0.004c0,0.018 0.004,0.033 0.012,0.046 0.007,0.013 0.018,0.023 0.032,0.031 0.013,0.007 0.029,0.011 0.046,0.011 0.014,0 0.027,-0.003 0.039,-0.008 0.012,-0.005 0.022,-0.012 0.031,-0.022l0.017 0.02c-0.01,0.012 -0.022,0.021 -0.038,0.027 -0.015,0.007 -0.031,0.01 -0.049,0.01zm0.237 0c-0.022,0 -0.042,-0.005 -0.06,-0.015 -0.017,-0.01 -0.031,-0.024 -0.041,-0.041 -0.01,-0.017 -0.016,-0.037 -0.016,-0.06 0,-0.023 0.006,-0.043 0.016,-0.06 0.01,-0.017 0.024,-0.031 0.041,-0.04 0.018,-0.01 0.038,-0.015 0.06,-0.015 0.02,0 0.037,0.004 0.053,0.011 0.015,0.008 0.027,0.019 0.036,0.034l-0.023 0.015c-0.007,-0.011 -0.017,-0.02 -0.029,-0.025 -0.011,-0.005 -0.024,-0.008 -0.037,-0.008 -0.016,0 -0.031,0.003 -0.044,0.011 -0.013,0.007 -0.023,0.017 -0.03,0.031 -0.008,0.013 -0.011,0.028 -0.011,0.046 0,0.018 0.003,0.034 0.011,0.047 0.007,0.013 0.017,0.023 0.03,0.031 0.013,0.007 0.028,0.011 0.044,0.011 0.013,0 0.026,-0.003 0.037,-0.009 0.012,-0.005 0.022,-0.013 0.029,-0.025l0.023 0.016c-0.009,0.015 -0.021,0.026 -0.036,0.033 -0.016,0.008 -0.033,0.012 -0.053,0.012zm0.221 0c-0.024,0 -0.044,-0.005 -0.062,-0.015 -0.018,-0.01 -0.032,-0.024 -0.042,-0.041 -0.01,-0.017 -0.015,-0.037 -0.015,-0.06 0,-0.022 0.005,-0.042 0.014,-0.059 0.01,-0.018 0.023,-0.031 0.04,-0.041 0.017,-0.01 0.036,-0.015 0.057,-0.015 0.021,0 0.04,0.005 0.056,0.014 0.017,0.01 0.03,0.024 0.039,0.041 0.01,0.017 0.015,0.037 0.015,0.06 0,0.002 0,0.003 -0.001,0.005 0,0.001 0,0.003 0,0.005l-0.197 0 0 -0.023 0.181 0 -0.012 0.009c0,-0.017 -0.004,-0.031 -0.011,-0.044 -0.007,-0.013 -0.016,-0.023 -0.028,-0.03 -0.013,-0.007 -0.027,-0.011 -0.042,-0.011 -0.016,0 -0.03,0.004 -0.042,0.011 -0.013,0.007 -0.022,0.017 -0.029,0.03 -0.007,0.013 -0.01,0.028 -0.01,0.045l0 0.004c0,0.018 0.003,0.033 0.011,0.046 0.008,0.013 0.018,0.023 0.032,0.031 0.014,0.007 0.029,0.011 0.047,0.011 0.014,0 0.026,-0.003 0.038,-0.008 0.012,-0.005 0.023,-0.012 0.031,-0.022l0.017 0.02c-0.01,0.012 -0.022,0.021 -0.037,0.027 -0.015,0.007 -0.032,0.01 -0.05,0.01zm0.26 0c-0.019,0 -0.037,-0.005 -0.053,-0.014 -0.016,-0.009 -0.028,-0.022 -0.038,-0.039 -0.009,-0.018 -0.013,-0.038 -0.013,-0.063 0,-0.025 0.004,-0.045 0.014,-0.063 0.009,-0.017 0.022,-0.03 0.037,-0.039 0.016,-0.009 0.034,-0.013 0.053,-0.013 0.022,0 0.041,0.005 0.059,0.014 0.017,0.01 0.03,0.024 0.04,0.041 0.01,0.017 0.015,0.037 0.015,0.06 0,0.023 -0.005,0.043 -0.015,0.06 -0.01,0.018 -0.023,0.031 -0.04,0.041 -0.018,0.01 -0.037,0.015 -0.059,0.015zm-0.116 -0.002l0 -0.32 0.03 0 0 0.16 -0.004 0.046 0.003 0.045 0 0.069 -0.029 0zm0.114 -0.025c0.016,0 0.031,-0.004 0.043,-0.011 0.013,-0.008 0.023,-0.018 0.031,-0.031 0.007,-0.014 0.011,-0.029 0.011,-0.047 0,-0.018 -0.004,-0.033 -0.011,-0.046 -0.008,-0.014 -0.018,-0.024 -0.031,-0.031 -0.012,-0.008 -0.027,-0.011 -0.043,-0.011 -0.016,0 -0.03,0.003 -0.043,0.011 -0.013,0.007 -0.023,0.017 -0.03,0.031 -0.008,0.013 -0.011,0.028 -0.011,0.046 0,0.018 0.003,0.033 0.011,0.047 0.007,0.013 0.017,0.023 0.03,0.031 0.013,0.007 0.027,0.011 0.043,0.011zm0.254 0.027c-0.024,0 -0.045,-0.005 -0.062,-0.015 -0.018,-0.01 -0.032,-0.024 -0.042,-0.041 -0.01,-0.017 -0.015,-0.037 -0.015,-0.06 0,-0.022 0.004,-0.042 0.014,-0.059 0.01,-0.018 0.023,-0.031 0.04,-0.041 0.017,-0.01 0.035,-0.015 0.056,-0.015 0.022,0 0.041,0.005 0.057,0.014 0.017,0.01 0.03,0.024 0.039,0.041 0.01,0.017 0.014,0.037 0.014,0.06 0,0.002 0,0.003 0,0.005 0,0.001 0,0.003 0,0.005l-0.197 0 0 -0.023 0.181 0 -0.012 0.009c0,-0.017 -0.004,-0.031 -0.011,-0.044 -0.007,-0.013 -0.017,-0.023 -0.029,-0.03 -0.012,-0.007 -0.026,-0.011 -0.042,-0.011 -0.015,0 -0.029,0.004 -0.041,0.011 -0.013,0.007 -0.022,0.017 -0.029,0.03 -0.007,0.013 -0.011,0.028 -0.011,0.045l0 0.004c0,0.018 0.004,0.033 0.012,0.046 0.007,0.013 0.018,0.023 0.032,0.031 0.013,0.007 0.029,0.011 0.046,0.011 0.014,0 0.027,-0.003 0.039,-0.008 0.012,-0.005 0.022,-0.012 0.031,-0.022l0.017 0.02c-0.01,0.012 -0.022,0.021 -0.038,0.027 -0.015,0.007 -0.031,0.01 -0.049,0.01zm0.352 0.001c-0.022,0 -0.042,-0.005 -0.059,-0.015 -0.018,-0.01 -0.032,-0.024 -0.042,-0.041 -0.01,-0.018 -0.015,-0.039 -0.015,-0.063 0,-0.025 0.005,-0.046 0.015,-0.064 0.01,-0.018 0.024,-0.031 0.042,-0.041 0.017,-0.01 0.037,-0.015 0.059,-0.015 0.019,0 0.036,0.004 0.051,0.013 0.015,0.009 0.026,0.022 0.034,0.039 0.008,0.018 0.012,0.04 0.012,0.068 0,0.027 -0.004,0.049 -0.011,0.067 -0.008,0.017 -0.019,0.031 -0.034,0.039 -0.014,0.009 -0.032,0.013 -0.052,0.013zm0.011 -0.055c0.011,0 0.021,-0.003 0.03,-0.008 0.009,-0.005 0.016,-0.012 0.022,-0.022 0.005,-0.01 0.007,-0.021 0.007,-0.034 0,-0.014 -0.002,-0.025 -0.007,-0.035 -0.006,-0.009 -0.013,-0.017 -0.022,-0.022 -0.009,-0.005 -0.019,-0.008 -0.03,-0.008 -0.011,0 -0.021,0.003 -0.03,0.008 -0.009,0.005 -0.016,0.013 -0.021,0.022 -0.005,0.01 -0.008,0.021 -0.008,0.035 0,0.013 0.003,0.024 0.008,0.034 0.005,0.01 0.012,0.017 0.021,0.022 0.009,0.005 0.019,0.008 0.03,0.008zm0.061 0.052l0 -0.048 0.002 -0.069 -0.005 -0.068 0 -0.135 0.067 0 0 0.32 -0.064 0zm0.104 0l0 -0.232 0.068 0 0 0.232 -0.068 0zm0.034 -0.265c-0.012,0 -0.022,-0.003 -0.03,-0.011 -0.008,-0.007 -0.012,-0.016 -0.012,-0.026 0,-0.011 0.004,-0.02 0.012,-0.027 0.008,-0.007 0.018,-0.011 0.03,-0.011 0.012,0 0.022,0.004 0.03,0.01 0.008,0.007 0.012,0.016 0.012,0.026 0,0.012 -0.004,0.021 -0.012,0.028 -0.007,0.008 -0.017,0.011 -0.03,0.011zm0.183 0.352c-0.022,0 -0.043,-0.003 -0.063,-0.008 -0.02,-0.006 -0.037,-0.014 -0.051,-0.024l0.027 -0.048c0.01,0.008 0.022,0.014 0.037,0.019 0.015,0.004 0.03,0.007 0.045,0.007 0.024,0 0.041,-0.005 0.052,-0.016 0.011,-0.011 0.016,-0.027 0.016,-0.048l0 -0.034 0.004 -0.059 -0.001 -0.058 0 -0.05 0.064 0 0 0.193c0,0.043 -0.011,0.075 -0.033,0.095 -0.023,0.021 -0.055,0.031 -0.097,0.031zm-0.01 -0.099c-0.022,0 -0.041,-0.004 -0.059,-0.014 -0.017,-0.009 -0.031,-0.022 -0.042,-0.039 -0.01,-0.017 -0.015,-0.036 -0.015,-0.059 0,-0.022 0.005,-0.042 0.015,-0.059 0.011,-0.017 0.025,-0.03 0.042,-0.039 0.018,-0.009 0.037,-0.014 0.059,-0.014 0.019,0 0.036,0.004 0.051,0.012 0.015,0.008 0.027,0.02 0.035,0.037 0.009,0.016 0.013,0.037 0.013,0.063 0,0.026 -0.004,0.047 -0.013,0.063 -0.008,0.017 -0.02,0.029 -0.035,0.037 -0.015,0.008 -0.032,0.012 -0.051,0.012zm0.013 -0.055c0.012,0 0.022,-0.002 0.032,-0.007 0.009,-0.005 0.016,-0.011 0.021,-0.02 0.005,-0.009 0.008,-0.019 0.008,-0.03 0,-0.011 -0.003,-0.021 -0.008,-0.03 -0.005,-0.008 -0.012,-0.015 -0.021,-0.02 -0.01,-0.004 -0.02,-0.007 -0.032,-0.007 -0.012,0 -0.022,0.003 -0.031,0.007 -0.01,0.005 -0.017,0.012 -0.022,0.02 -0.006,0.009 -0.008,0.019 -0.008,0.03 0,0.011 0.002,0.021 0.008,0.03 0.005,0.009 0.012,0.015 0.022,0.02 0.009,0.005 0.019,0.007 0.031,0.007zm0.168 0.067l0 -0.232 0.067 0 0 0.232 -0.067 0zm0.033 -0.265c-0.012,0 -0.022,-0.003 -0.03,-0.011 -0.008,-0.007 -0.012,-0.016 -0.012,-0.026 0,-0.011 0.004,-0.02 0.012,-0.027 0.008,-0.007 0.018,-0.011 0.03,-0.011 0.013,0 0.023,0.004 0.03,0.01 0.008,0.007 0.012,0.016 0.012,0.026 0,0.012 -0.004,0.021 -0.011,0.028 -0.008,0.008 -0.018,0.011 -0.031,0.011zm0.169 0.268c-0.027,0 -0.049,-0.007 -0.064,-0.021 -0.015,-0.014 -0.023,-0.035 -0.023,-0.062l0 -0.204 0.068 0 0 0.203c0,0.01 0.002,0.017 0.007,0.023 0.006,0.005 0.013,0.008 0.022,0.008 0.01,0 0.019,-0.003 0.027,-0.009l0.018 0.047c-0.007,0.005 -0.015,0.009 -0.025,0.011 -0.01,0.003 -0.02,0.004 -0.03,0.004zm-0.122 -0.184l0 -0.051 0.16 0 0 0.051 -0.16 0zm0.327 0.181l0 -0.046 -0.004 -0.01 0 -0.081c0,-0.014 -0.005,-0.025 -0.013,-0.033 -0.009,-0.008 -0.023,-0.012 -0.041,-0.012 -0.012,0 -0.024,0.002 -0.036,0.005 -0.012,0.004 -0.022,0.01 -0.031,0.016l-0.024 -0.047c0.013,-0.009 0.028,-0.016 0.046,-0.021 0.018,-0.004 0.036,-0.007 0.054,-0.007 0.036,0 0.063,0.008 0.083,0.025 0.019,0.017 0.029,0.043 0.029,0.078l0 0.133 -0.063 0zm-0.071 0.003c-0.018,0 -0.033,-0.003 -0.046,-0.009 -0.013,-0.006 -0.023,-0.015 -0.03,-0.025 -0.007,-0.011 -0.01,-0.023 -0.01,-0.036 0,-0.014 0.003,-0.026 0.01,-0.036 0.007,-0.011 0.017,-0.019 0.032,-0.025 0.015,-0.006 0.034,-0.009 0.057,-0.009l0.062 0 0 0.04 -0.054 0c-0.016,0 -0.027,0.002 -0.033,0.007 -0.006,0.006 -0.009,0.012 -0.009,0.02 0,0.008 0.004,0.015 0.01,0.02 0.007,0.005 0.016,0.008 0.028,0.008 0.011,0 0.021,-0.003 0.03,-0.008 0.009,-0.006 0.016,-0.013 0.02,-0.024l0.01 0.031c-0.005,0.015 -0.014,0.027 -0.027,0.034 -0.013,0.008 -0.029,0.012 -0.05,0.012zm0.173 -0.003l0 -0.32 0.067 0 0 0.32 -0.067 0z"/>
   <path class="fil1" d="M1.338 0.641c-0.203,-0.025 -0.894,-0.181 -0.937,-0.324 -0.042,-0.136 0.413,-0.038 0.329,-0.202 -0.042,-0.107 -0.514,-0.121 -0.73,-0.113l0.165 0.12c0.128,-0.005 0.266,0.001 0.366,0.021 -0.09,0.024 -0.24,0.034 -0.283,0.102 -0.152,0.241 0.973,0.476 1.09,0.396z"/>
   <path class="fil2" style="mask:url(#id0)" d="M0.399 0.311c-0.024,-0.107 0.276,-0.056 0.333,-0.134 -0.039,-0.009 -0.232,-0.041 -0.201,-0.034 -0.09,0.024 -0.24,0.034 -0.283,0.102 -0.005,0.008 0.034,0.031 0.032,0.038l0.119 0.028z"/>
  </g>
 </g>
</svg>
